<svg xmlns="http://www.w3.org/2000/svg" width="32" height="32" viewBox="0 0 256 256"><path fill="#bd93f9" d="M14.3 19.414a5.4 5.4 0 0 0 .342-1.913c0-2.129-1.139-3.86-2.539-3.86-1.412 0-2.55 1.731-2.55 3.86 0 .683.114 1.332.33 1.89a20.95 20.95 0 0 0-9.268 3.313A101 101 0 0 0 9.017 8.119c.193.125.387.262.603.399a9.7 9.7 0 0 0 2.619 1.15 15 15 0 0 1-1.605-1.389 14 14 0 0 1-1.116-1.253A99 99 0 0 0 12 1.071a98.6 98.6 0 0 0 8.22 16.76 10 10 0 0 0-1.15-.535 10.5 10.5 0 0 0-1.936-.546c.774.387 1.674.9 2.619 1.583.615.456 1.161.911 1.628 1.355l.023.023c.649 1.059 1.321 2.038 1.981 2.994a20.8 20.8 0 0 0-9.085-3.291" font-family="none" font-size="none" font-weight="none" style="mix-blend-mode:normal" text-anchor="none" transform="scale(10.66667)"/></svg>