<svg xmlns="http://www.w3.org/2000/svg" width="96" height="96" viewBox="0 0 24 24"><path d="m9.666 2-.49 2.523a8 8 0 0 0-2.244 1.291L4.508 4.98 2.172 9.02l1.941 1.688A8 8 0 0 0 4 12c0 .409.04.833.113 1.291v.002L2.172 14.98l2.336 4.041 2.422-.834a8 8 0 0 0 2.246 1.29L9.666 22h4.668l.49-2.523a8 8 0 0 0 2.244-1.291l2.424.835 2.334-4.04-1.94-1.69c.075-.458.114-.883.114-1.291s-.039-.832-.113-1.29v-.001l1.941-1.69-2.336-4.04-2.422.833a8 8 0 0 0-2.246-1.289L14.334 2zm1.648 2h1.372l.388 2 1.043.395a6 6 0 0 1 1.684.964l.863.707 1.922-.66.685 1.186-1.535 1.336.176 1.1v.001c.061.375.088.69.088.971s-.027.596-.088.97l-.178 1.1 1.536 1.336-.686 1.188-1.92-.662-.865.709a6 6 0 0 1-1.682.964h-.002L13.072 18l-.388 2h-1.37l-.388-2-1.043-.395a6 6 0 0 1-1.684-.964l-.863-.707-1.922.66-.685-1.186 1.537-1.338-.178-1.095v-.002A6 6 0 0 1 6 12c0-.281.027-.596.088-.97l.178-1.1-1.537-1.336.685-1.188 1.922.662.863-.709a6 6 0 0 1 1.684-.964L10.926 6zM12 8c-2.197 0-4 1.803-4 4s1.803 4 4 4 4-1.803 4-4-1.803-4-4-4m0 2c1.111 0 2 .889 2 2s-.889 2-2 2-2-.889-2-2 .889-2 2-2"/></svg>